<svg xmlns="http://www.w3.org/2000/svg" viewBox="0 0 420 520" role="img" aria-labelledby="title desc">
  <title id="title">Carte du Maroc</title>
  <desc id="desc">Illustration stylisee de la carte du Maroc avec points de villes.</desc>
  <defs>
    <linearGradient id="bg" x1="0" y1="0" x2="1" y2="1">
      <stop offset="0%" stop-color="#0f6fb0"/>
      <stop offset="100%" stop-color="#18c7b7"/>
    </linearGradient>
  </defs>
  <rect width="420" height="520" rx="26" fill="#eef8ff"/>
  <path d="M115 70l48 16 38-8 38 12 31 30 34 30-14 40-28 20 10 30-26 24-8 44-22 20 8 30-24 26-44-12-40 10-24-28 8-38-16-28 8-22-24-18 8-24-24-38 20-36 8-34 35-24z" fill="url(#bg)" stroke="#064a80" stroke-width="10" stroke-linejoin="round"/>
  <g fill="#ffffff" opacity="0.92">
    <circle cx="170" cy="155" r="7"/>
    <circle cx="210" cy="192" r="7"/>
    <circle cx="265" cy="176" r="7"/>
    <circle cx="238" cy="236" r="7"/>
    <circle cx="198" cy="268" r="7"/>
    <circle cx="150" cy="248" r="7"/>
    <circle cx="142" cy="315" r="7"/>
    <circle cx="228" cy="330" r="7"/>
    <circle cx="258" cy="290" r="7"/>
  </g>
  <text x="210" y="475" text-anchor="middle" font-family="Segoe UI, Arial, sans-serif" font-size="24" font-weight="700" fill="#0b5fa0">Maroc</text>
</svg>
